<svg width="677" height="175" viewBox="0 0 677 175" fill="none" xmlns="http://www.w3.org/2000/svg">
<rect width="677" height="175" fill="white"/>
<path d="M33.656 45.88C27.704 45.88 23.048 47.56 19.688 50.92C16.328 54.184 13.832 59.464 12.2 66.76C12.104 66.952 11.768 67.048 11.192 67.048C10.712 67.048 10.472 66.952 10.472 66.76C10.856 63.976 11.288 59.56 11.768 53.512C12.248 47.464 12.488 42.904 12.488 39.832C12.488 39.352 12.776 39.112 13.352 39.112C13.928 39.112 14.216 39.352 14.216 39.832C14.216 41.944 16.856 43 22.136 43C30.296 43.288 39.944 43.432 51.08 43.432C56.744 43.432 62.744 43.336 69.08 43.144L78.872 43C82.424 43 85.016 42.76 86.648 42.28C88.28 41.8 89.336 40.84 89.816 39.4C89.912 39.016 90.2 38.824 90.68 38.824C91.256 38.824 91.544 39.016 91.544 39.4C91.256 42.088 90.92 46.408 90.536 52.36C90.248 58.312 90.104 63.112 90.104 66.76C90.104 66.952 89.816 67.048 89.24 67.048C88.76 67.048 88.52 66.952 88.52 66.76C87.848 59.368 85.928 54.04 82.76 50.776C79.592 47.512 74.888 45.88 68.648 45.88C65.096 45.88 62.552 46.12 61.016 46.6C59.48 46.984 58.424 47.8 57.848 49.048C57.272 50.2 56.984 52.168 56.984 54.952V121.336C56.984 124.312 57.272 126.472 57.848 127.816C58.52 129.16 59.768 130.072 61.592 130.552C63.416 131.032 66.344 131.272 70.376 131.272C70.568 131.272 70.664 131.56 70.664 132.136C70.664 132.712 70.568 133 70.376 133C67.016 133 64.376 132.952 62.456 132.856L51.08 132.712L39.992 132.856C38.072 132.952 35.384 133 31.928 133C31.64 133 31.496 132.712 31.496 132.136C31.496 131.56 31.64 131.272 31.928 131.272C35.864 131.272 38.744 131.032 40.568 130.552C42.392 130.072 43.64 129.16 44.312 127.816C44.984 126.376 45.32 124.216 45.32 121.336V54.664C45.32 51.976 45.032 50.056 44.456 48.904C43.88 47.656 42.824 46.84 41.288 46.456C39.752 46.072 37.208 45.88 33.656 45.88ZM118.409 121.336C118.409 124.216 118.649 126.376 119.129 127.816C119.609 129.16 120.521 130.072 121.865 130.552C123.305 131.032 125.561 131.272 128.633 131.272C128.921 131.272 129.065 131.56 129.065 132.136C129.065 132.712 128.921 133 128.633 133C125.849 133 123.689 132.952 122.153 132.856L112.937 132.712L104.009 132.856C102.377 132.952 100.121 133 97.241 133C97.049 133 96.953 132.712 96.953 132.136C96.953 131.56 97.049 131.272 97.241 131.272C100.313 131.272 102.569 131.032 104.009 130.552C105.449 130.072 106.409 129.16 106.889 127.816C107.465 126.376 107.753 124.216 107.753 121.336V77.272C107.753 74.392 107.465 72.28 106.889 70.936C106.409 69.592 105.449 68.68 104.009 68.2C102.569 67.624 100.313 67.336 97.241 67.336C97.049 67.336 96.953 67.048 96.953 66.472C96.953 65.896 97.049 65.608 97.241 65.608L104.009 65.752C107.657 65.944 110.633 66.04 112.937 66.04C115.337 66.04 118.457 65.944 122.297 65.752L128.633 65.608C128.921 65.608 129.065 65.896 129.065 66.472C129.065 67.048 128.921 67.336 128.633 67.336C125.657 67.336 123.449 67.624 122.009 68.2C120.665 68.776 119.705 69.784 119.129 71.224C118.649 72.568 118.409 74.68 118.409 77.56V121.336ZM228.986 131.272C229.178 131.272 229.274 131.56 229.274 132.136C229.274 132.712 229.178 133 228.986 133C226.298 133 224.186 132.952 222.65 132.856L214.154 132.712L204.362 132.856C202.73 132.952 200.474 133 197.594 133C197.402 133 197.306 132.712 197.306 132.136C197.306 131.56 197.402 131.272 197.594 131.272C200.858 131.272 203.258 131.032 204.794 130.552C206.426 129.976 207.482 129.016 207.962 127.672C208.538 126.328 208.73 124.216 208.538 121.336L206.666 73.96L182.618 131.992C182.426 132.376 182.09 132.568 181.61 132.568C181.034 132.568 180.65 132.376 180.458 131.992L152.81 77.992L151.802 116.44C151.706 121.72 152.378 125.512 153.818 127.816C155.354 130.12 157.946 131.272 161.594 131.272C161.882 131.272 162.026 131.56 162.026 132.136C162.026 132.712 161.882 133 161.594 133C159.482 133 157.85 132.952 156.698 132.856L150.218 132.712L143.882 132.856C142.634 132.952 140.858 133 138.554 133C138.362 133 138.266 132.712 138.266 132.136C138.266 131.56 138.362 131.272 138.554 131.272C142.106 131.272 144.65 130.168 146.186 127.96C147.818 125.656 148.73 121.816 148.922 116.44L150.074 73.24C147.194 69.304 143.642 67.336 139.418 67.336C139.13 67.336 138.986 67.048 138.986 66.472C138.986 65.896 139.13 65.608 139.418 65.608L148.634 65.752L156.122 65.608C157.37 65.608 158.378 66.088 159.146 67.048C160.01 67.912 161.258 69.928 162.89 73.096L185.642 118.024L205.802 69.208C206.186 68.152 206.762 67.288 207.53 66.616C208.394 65.944 209.258 65.608 210.122 65.608L218.186 65.752L228.266 65.608C228.458 65.608 228.554 65.896 228.554 66.472C228.554 67.048 228.458 67.336 228.266 67.336C224.234 67.336 221.354 68.008 219.626 69.352C217.898 70.6 217.178 73.144 217.466 76.984L219.482 121.336C219.674 124.312 219.962 126.472 220.346 127.816C220.826 129.16 221.69 130.072 222.938 130.552C224.186 131.032 226.202 131.272 228.986 131.272Z" fill="#2A2A2A"/>
<path fill-rule="evenodd" clip-rule="evenodd" d="M677 25H248V150H677V25ZM282.912 65.776C281.088 62.992 280.176 59.776 280.176 56.128C280.176 51.712 281.472 48.064 284.064 45.184C286.752 42.304 290.496 40.864 295.296 40.864C301.632 40.864 306.528 43.216 309.984 47.92C313.44 52.528 315.696 57.424 316.752 62.608C316.848 62.992 317.136 63.136 317.616 63.04C318.096 62.944 318.336 62.704 318.336 62.32L317.616 44.32C317.616 43.168 316.896 42.304 315.456 41.728C310.272 39.52 304.464 38.416 298.032 38.416C293.328 38.416 288.816 39.28 284.496 41.008C280.272 42.64 276.816 45.184 274.128 48.64C271.536 52.096 270.24 56.272 270.24 61.168C270.24 65.2 271.152 68.752 272.976 71.824C274.8 74.8 277.008 77.344 279.6 79.456C282.288 81.472 285.888 83.92 290.4 86.8C295.008 89.584 298.656 92.08 301.344 94.288C304.128 96.4 306.48 99.04 308.4 102.208C310.32 105.376 311.28 109.072 311.28 113.296C311.28 118.864 309.744 122.896 306.672 125.392C303.696 127.792 299.952 128.992 295.44 128.992C288.816 128.992 283.44 126.448 279.312 121.36C275.184 116.272 271.968 110.08 269.664 102.784C269.568 102.4 269.232 102.256 268.656 102.352C268.176 102.448 267.984 102.688 268.08 103.072L269.52 123.664C269.52 124.432 269.616 125.008 269.808 125.392C270 125.776 270.336 126.112 270.816 126.4C273.6 128.128 276.864 129.424 280.608 130.288C284.352 131.248 288.144 131.728 291.984 131.728C298.032 131.728 303.312 130.672 307.824 128.56C312.432 126.352 315.936 123.376 318.336 119.632C320.832 115.792 322.08 111.52 322.08 106.816C322.08 102.496 321.072 98.752 319.056 95.584C317.04 92.416 314.592 89.776 311.712 87.664C308.928 85.456 305.136 82.864 300.336 79.888C295.728 77.104 292.128 74.752 289.536 72.832C286.944 70.816 284.736 68.464 282.912 65.776ZM409.097 129.136C409.097 128.56 408.857 128.272 408.377 128.272C405.881 128.272 403.816 127.84 402.185 126.976C400.648 126.016 399.113 124.336 397.577 121.936C396.041 119.44 394.025 115.552 391.529 110.272L368.489 60.448C368.297 60.064 368.008 59.872 367.624 59.872C367.241 59.872 366.952 60.064 366.761 60.448L345.737 110.992C343.625 116.08 341.8 119.824 340.265 122.224C338.825 124.528 337.192 126.112 335.368 126.976C333.641 127.84 331.288 128.272 328.312 128.272C327.832 128.272 327.592 128.56 327.592 129.136C327.592 129.712 327.832 130 328.312 130C330.04 130 332.344 129.904 335.225 129.712C338.489 129.52 341.321 129.424 343.721 129.424C346.024 129.424 348.521 129.52 351.209 129.712C353.704 129.904 355.673 130 357.113 130C357.592 130 357.833 129.712 357.833 129.136C357.833 128.56 357.592 128.272 357.113 128.272C353.561 128.272 350.921 127.744 349.193 126.688C347.561 125.632 346.744 123.904 346.744 121.504C346.744 119.392 347.561 116.32 349.193 112.288L355.097 97.744H374.249L383.609 117.904C384.857 120.496 385.48 122.656 385.48 124.384C385.48 125.728 384.904 126.736 383.753 127.408C382.697 127.984 380.969 128.272 378.568 128.272C378.185 128.272 377.993 128.56 377.993 129.136C377.993 129.712 378.185 130 378.568 130C380.008 130 382.073 129.904 384.76 129.712C387.641 129.52 389.801 129.424 391.24 129.424C392.969 129.424 395.848 129.52 399.881 129.712C403.721 129.904 406.553 130 408.377 130C408.857 130 409.097 129.712 409.097 129.136ZM372.809 94.72H356.393L364.024 75.856L372.809 94.72ZM428.913 81.328C427.473 79.216 426.753 76.768 426.753 73.984C426.753 70.816 427.617 68.272 429.345 66.352C431.169 64.432 433.809 63.472 437.265 63.472C440.625 63.472 443.649 64.432 446.337 66.352C449.121 68.176 451.329 70.384 452.961 72.976C454.689 75.568 455.793 77.92 456.273 80.032C456.465 80.32 456.801 80.416 457.281 80.32C457.761 80.224 458.001 79.984 458.001 79.6L457.425 66.784C457.329 66.112 457.137 65.632 456.849 65.344C456.657 64.96 456.129 64.576 455.265 64.192C450.369 61.984 445.233 60.88 439.857 60.88C433.521 60.88 428.097 62.464 423.585 65.632C419.169 68.8 416.961 73.12 416.961 78.592C416.961 81.76 417.729 84.544 419.265 86.944C420.897 89.248 422.865 91.216 425.169 92.848C427.473 94.384 430.497 96.16 434.241 98.176C437.889 100.192 440.865 102.016 443.169 103.648C445.473 105.184 447.393 107.152 448.929 109.552C450.465 111.856 451.233 114.544 451.233 117.616C451.233 121.552 450.081 124.48 447.777 126.4C445.473 128.224 442.737 129.136 439.569 129.136C434.673 129.136 430.209 127.12 426.177 123.088C422.241 118.96 419.313 114.112 417.393 108.544C417.201 108.16 416.865 108.016 416.385 108.112C415.905 108.208 415.665 108.448 415.665 108.832L416.961 123.808C416.961 125.248 417.345 126.208 418.113 126.688C420.321 128.224 423.057 129.424 426.321 130.288C429.681 131.248 433.185 131.728 436.833 131.728C441.729 131.728 446.049 130.864 449.793 129.136C453.537 127.408 456.417 125.056 458.433 122.08C460.545 119.008 461.601 115.648 461.601 112C461.601 108.64 460.737 105.76 459.009 103.36C457.377 100.864 455.313 98.8 452.817 97.168C450.417 95.536 447.249 93.712 443.313 91.696C439.473 89.68 436.497 88 434.385 86.656C432.273 85.216 430.449 83.44 428.913 81.328ZM547.331 129.136C547.331 128.56 547.091 128.272 546.611 128.272C544.115 128.272 542.051 127.84 540.419 126.976C538.883 126.016 537.347 124.336 535.811 121.936C534.275 119.44 532.259 115.552 529.763 110.272L506.723 60.448C506.531 60.064 506.243 59.872 505.859 59.872C505.475 59.872 505.187 60.064 504.995 60.448L483.971 110.992C481.859 116.08 480.035 119.824 478.499 122.224C477.059 124.528 475.427 126.112 473.603 126.976C471.875 127.84 469.523 128.272 466.547 128.272C466.067 128.272 465.827 128.56 465.827 129.136C465.827 129.712 466.067 130 466.547 130C468.275 130 470.579 129.904 473.459 129.712C476.723 129.52 479.555 129.424 481.955 129.424C484.259 129.424 486.755 129.52 489.443 129.712C491.939 129.904 493.907 130 495.347 130C495.827 130 496.067 129.712 496.067 129.136C496.067 128.56 495.827 128.272 495.347 128.272C491.795 128.272 489.155 127.744 487.427 126.688C485.795 125.632 484.979 123.904 484.979 121.504C484.979 119.392 485.795 116.32 487.427 112.288L493.331 97.744H512.483L521.843 117.904C523.091 120.496 523.715 122.656 523.715 124.384C523.715 125.728 523.139 126.736 521.987 127.408C520.931 127.984 519.203 128.272 516.803 128.272C516.419 128.272 516.227 128.56 516.227 129.136C516.227 129.712 516.419 130 516.803 130C518.243 130 520.307 129.904 522.995 129.712C525.875 129.52 528.035 129.424 529.475 129.424C531.203 129.424 534.083 129.52 538.115 129.712C541.955 129.904 544.787 130 546.611 130C547.091 130 547.331 129.712 547.331 129.136ZM511.043 94.72H494.627L502.259 75.856L511.043 94.72ZM625.756 129.136C625.756 128.56 625.612 128.272 625.324 128.272C622.348 128.272 619.852 127.744 617.836 126.688C615.82 125.536 613.324 123.28 610.348 119.92C607.468 116.464 602.668 110.32 595.948 101.488L585.148 87.808L596.812 76.288C600.652 72.544 605.02 69.616 609.916 67.504C614.812 65.392 618.94 64.336 622.3 64.336C622.588 64.336 622.732 64.048 622.732 63.472C622.732 62.896 622.588 62.608 622.3 62.608C621.052 62.608 619.996 62.656 619.132 62.752C616.06 62.944 612.604 63.04 608.764 63.04C605.596 63.04 602.38 62.944 599.116 62.752L593.5 62.608C593.308 62.608 593.212 62.896 593.212 63.472C593.212 64.048 593.308 64.336 593.5 64.336C595.612 64.336 597.148 64.528 598.108 64.912C599.068 65.296 599.548 65.92 599.548 66.784C599.548 68.224 597.58 70.912 593.644 74.848L572.62 95.872V74.56C572.62 71.68 572.86 69.568 573.34 68.224C573.916 66.784 574.876 65.776 576.22 65.2C577.66 64.624 579.868 64.336 582.844 64.336C583.132 64.336 583.276 64.048 583.276 63.472C583.276 62.896 583.132 62.608 582.844 62.608L576.508 62.752C572.668 62.944 569.596 63.04 567.292 63.04C564.988 63.04 562.012 62.944 558.364 62.752L551.884 62.608C551.596 62.608 551.452 62.896 551.452 63.472C551.452 64.048 551.596 64.336 551.884 64.336C554.86 64.336 557.02 64.624 558.364 65.2C559.804 65.68 560.764 66.592 561.244 67.936C561.82 69.28 562.108 71.392 562.108 74.272V118.336C562.108 121.216 561.82 123.376 561.244 124.816C560.764 126.16 559.804 127.072 558.364 127.552C556.924 128.032 554.668 128.272 551.596 128.272C551.404 128.272 551.308 128.56 551.308 129.136C551.308 129.712 551.404 130 551.596 130C554.476 130 556.732 129.952 558.364 129.856L567.292 129.712L576.364 129.856C577.9 129.952 580.06 130 582.844 130C583.132 130 583.276 129.712 583.276 129.136C583.276 128.56 583.132 128.272 582.844 128.272C579.772 128.272 577.516 128.032 576.076 127.552C574.732 127.072 573.82 126.16 573.34 124.816C572.86 123.376 572.62 121.216 572.62 118.336V100.192L577.804 95.152L588.748 109.12C592.972 114.592 596.332 119.296 598.828 123.232C601.42 127.168 602.956 129.28 603.436 129.568C604.012 129.856 605.836 130 608.908 130H625.324C625.612 130 625.756 129.712 625.756 129.136ZM652.816 124.816C652.336 123.376 652.096 121.216 652.096 118.336V74.56C652.096 71.68 652.336 69.568 652.816 68.224C653.393 66.784 654.353 65.776 655.697 65.2C657.137 64.624 659.345 64.336 662.32 64.336C662.608 64.336 662.753 64.048 662.753 63.472C662.753 62.896 662.608 62.608 662.32 62.608L655.984 62.752C652.145 62.944 649.025 63.04 646.625 63.04C644.32 63.04 641.345 62.944 637.697 62.752L630.928 62.608C630.737 62.608 630.641 62.896 630.641 63.472C630.641 64.048 630.737 64.336 630.928 64.336C634 64.336 636.257 64.624 637.697 65.2C639.137 65.68 640.096 66.592 640.577 67.936C641.152 69.28 641.44 71.392 641.44 74.272V118.336C641.44 121.216 641.152 123.376 640.577 124.816C640.096 126.16 639.137 127.072 637.697 127.552C636.257 128.032 634 128.272 630.928 128.272C630.737 128.272 630.641 128.56 630.641 129.136C630.641 129.712 630.737 130 630.928 130C633.809 130 636.065 129.952 637.697 129.856L646.625 129.712L655.841 129.856C657.376 129.952 659.536 130 662.32 130C662.608 130 662.753 129.712 662.753 129.136C662.753 128.56 662.608 128.272 662.32 128.272C659.249 128.272 656.992 128.032 655.552 127.552C654.208 127.072 653.297 126.16 652.816 124.816Z" fill="#2A2A2A"/>
<rect y="25" width="238" height="3" rx="1.5" fill="#2A2A2A"/>
<rect y="148" width="238" height="3" rx="1.5" fill="#2A2A2A"/>
</svg>
