<?xml version="1.0" standalone="no"?>
<!DOCTYPE svg PUBLIC "-//W3C//DTD SVG 20010904//EN"
 "http://www.w3.org/TR/2001/REC-SVG-20010904/DTD/svg10.dtd">
<svg version="1.0" xmlns="http://www.w3.org/2000/svg"
 width="260.000000pt" height="260.000000pt" viewBox="0 0 260.000000 260.000000"
 preserveAspectRatio="xMidYMid meet">
<metadata>
Created by potrace 1.11, written by Peter Selinger 2001-2013
</metadata>
<g transform="translate(0.000000,260.000000) scale(0.100000,-0.100000)"
fill="#000000" stroke="none">
<path d="M0 2080 c0 -20 7 -20 650 -20 l650 0 0 -765 0 -765 -650 0 c-643 0
-650 0 -650 -20 0 -20 7 -20 1300 -20 l1300 0 0 805 0 805 -1300 0 c-1293 0
-1300 0 -1300 -20z m2175 -214 c83 -25 83 -25 87 -163 1 -68 -1 -124 -5 -125
-5 -2 -16 20 -25 47 -55 163 -172 252 -299 229 -108 -19 -174 -111 -159 -221
13 -99 65 -157 236 -264 217 -135 277 -196 300 -302 34 -158 -62 -306 -232
-359 -75 -23 -217 -24 -301 -2 -70 18 -136 49 -142 67 -10 29 -21 283 -13 292
5 6 11 0 15 -15 14 -55 94 -197 133 -237 77 -81 172 -108 271 -79 93 26 129
79 129 188 0 138 -52 204 -276 350 -185 121 -237 183 -251 295 -17 145 82 266
252 310 62 16 211 10 280 -11z"/>
<path d="M166 1909 c-2 -8 -7 -61 -10 -119 -3 -58 -9 -133 -12 -167 -9 -80 6
-82 30 -5 26 83 71 148 125 180 42 25 55 27 148 27 85 0 105 -3 120 -18 17
-16 18 -52 21 -510 1 -383 -1 -498 -11 -517 -15 -29 -64 -49 -124 -49 -24 -1
-43 -5 -43 -11 0 -6 92 -10 255 -10 163 0 255 4 255 10 0 6 -19 10 -42 11 -61
0 -110 20 -125 49 -10 19 -12 134 -11 517 3 457 4 494 21 510 15 15 35 18 120
18 90 0 107 -3 147 -25 56 -32 97 -96 112 -178 6 -34 14 -62 18 -62 7 0 30
353 23 360 -3 3 -10 -2 -16 -11 -7 -9 -21 -21 -32 -27 -28 -14 -539 -27 -749
-17 -163 7 -170 8 -192 32 -17 19 -25 22 -28 12z"/>
</g>
</svg>
